<svg width="1363" height="163" viewBox="0 0 1363 163" fill="none" xmlns="http://www.w3.org/2000/svg">
<path d="M0 15C0 6.71573 6.71573 0 15 0H37V163H15C6.71573 163 0 156.284 0 148V15Z" fill="#424242"/>
<rect width="1097" height="163" transform="translate(37)" fill="#F0F0F0"/>
<path d="M101.906 53.9219L94.3945 51.2383V48.0859L104.602 52.375V54.6367L101.906 53.9219ZM94.3945 56.1719L101.918 53.4297L104.602 52.7852V55.0352L94.3945 59.3242V56.1719ZM119.895 43.9375V61H116.391V43.9375H119.895ZM125.145 43.9375V46.6914H111.223V43.9375H125.145ZM132 58.1406V52.4922C132 52.0859 131.934 51.7383 131.801 51.4492C131.668 51.1523 131.461 50.9219 131.18 50.7578C130.906 50.5938 130.551 50.5117 130.113 50.5117C129.738 50.5117 129.414 50.5781 129.141 50.7109C128.867 50.8359 128.656 51.0195 128.508 51.2617C128.359 51.4961 128.285 51.7734 128.285 52.0938H124.91C124.91 51.5547 125.035 51.043 125.285 50.5586C125.535 50.0742 125.898 49.6484 126.375 49.2812C126.852 48.9062 127.418 48.6133 128.074 48.4023C128.738 48.1914 129.48 48.0859 130.301 48.0859C131.285 48.0859 132.16 48.25 132.926 48.5781C133.691 48.9062 134.293 49.3984 134.73 50.0547C135.176 50.7109 135.398 51.5312 135.398 52.5156V57.9414C135.398 58.6367 135.441 59.207 135.527 59.6523C135.613 60.0898 135.738 60.4727 135.902 60.8008V61H132.492C132.328 60.6562 132.203 60.2266 132.117 59.7109C132.039 59.1875 132 58.6641 132 58.1406ZM132.445 53.2773L132.469 55.1875H130.582C130.137 55.1875 129.75 55.2383 129.422 55.3398C129.094 55.4414 128.824 55.5859 128.613 55.7734C128.402 55.9531 128.246 56.1641 128.145 56.4062C128.051 56.6484 128.004 56.9141 128.004 57.2031C128.004 57.4922 128.07 57.7539 128.203 57.9883C128.336 58.2148 128.527 58.3945 128.777 58.5273C129.027 58.6523 129.32 58.7148 129.656 58.7148C130.164 58.7148 130.605 58.6133 130.98 58.4102C131.355 58.207 131.645 57.957 131.848 57.6602C132.059 57.3633 132.168 57.082 132.176 56.8164L133.066 58.2461C132.941 58.5664 132.77 58.8984 132.551 59.2422C132.34 59.5859 132.07 59.9102 131.742 60.2148C131.414 60.5117 131.02 60.7578 130.559 60.9531C130.098 61.1406 129.551 61.2344 128.918 61.2344C128.113 61.2344 127.383 61.0742 126.727 60.7539C126.078 60.4258 125.562 59.9766 125.18 59.4062C124.805 58.8281 124.617 58.1719 124.617 57.4375C124.617 56.7734 124.742 56.1836 124.992 55.668C125.242 55.1523 125.609 54.7188 126.094 54.3672C126.586 54.0078 127.199 53.7383 127.934 53.5586C128.668 53.3711 129.52 53.2773 130.488 53.2773H132.445ZM144.855 57.4961C144.855 57.2539 144.785 57.0352 144.645 56.8398C144.504 56.6445 144.242 56.4648 143.859 56.3008C143.484 56.1289 142.941 55.9727 142.23 55.832C141.59 55.6914 140.992 55.5156 140.438 55.3047C139.891 55.0859 139.414 54.8242 139.008 54.5195C138.609 54.2148 138.297 53.8555 138.07 53.4414C137.844 53.0195 137.73 52.5391 137.73 52C137.73 51.4688 137.844 50.9688 138.07 50.5C138.305 50.0312 138.637 49.6172 139.066 49.2578C139.504 48.8906 140.035 48.6055 140.66 48.4023C141.293 48.1914 142.004 48.0859 142.793 48.0859C143.895 48.0859 144.84 48.2617 145.629 48.6133C146.426 48.9648 147.035 49.4492 147.457 50.0664C147.887 50.6758 148.102 51.3711 148.102 52.1523H144.727C144.727 51.8242 144.656 51.5312 144.516 51.2734C144.383 51.0078 144.172 50.8008 143.883 50.6523C143.602 50.4961 143.234 50.418 142.781 50.418C142.406 50.418 142.082 50.4844 141.809 50.6172C141.535 50.7422 141.324 50.9141 141.176 51.1328C141.035 51.3438 140.965 51.5781 140.965 51.8359C140.965 52.0312 141.004 52.207 141.082 52.3633C141.168 52.5117 141.305 52.6484 141.492 52.7734C141.68 52.8984 141.922 53.0156 142.219 53.125C142.523 53.2266 142.898 53.3203 143.344 53.4062C144.258 53.5938 145.074 53.8398 145.793 54.1445C146.512 54.4414 147.082 54.8477 147.504 55.3633C147.926 55.8711 148.137 56.5391 148.137 57.3672C148.137 57.9297 148.012 58.4453 147.762 58.9141C147.512 59.3828 147.152 59.793 146.684 60.1445C146.215 60.4883 145.652 60.7578 144.996 60.9531C144.348 61.1406 143.617 61.2344 142.805 61.2344C141.625 61.2344 140.625 61.0234 139.805 60.6016C138.992 60.1797 138.375 59.6445 137.953 58.9961C137.539 58.3398 137.332 57.668 137.332 56.9805H140.531C140.547 57.4414 140.664 57.8125 140.883 58.0938C141.109 58.375 141.395 58.5781 141.738 58.7031C142.09 58.8281 142.469 58.8906 142.875 58.8906C143.312 58.8906 143.676 58.832 143.965 58.7148C144.254 58.5898 144.473 58.4258 144.621 58.2227C144.777 58.0117 144.855 57.7695 144.855 57.4961ZM153.703 42.9883V61H150.328V42.9883H153.703ZM161.695 48.3203L156.188 54.6016L153.234 57.5898L152.004 55.1523L154.348 52.1758L157.641 48.3203H161.695ZM158.191 61L154.441 55.1406L156.773 53.1016L162.082 61H158.191ZM170.941 43.9375H173.918L178.301 56.4648L182.684 43.9375H185.66L179.496 61H177.105L170.941 43.9375ZM169.336 43.9375H172.301L172.84 56.1484V61H169.336V43.9375ZM184.301 43.9375H187.277V61H183.762V56.1484L184.301 43.9375ZM195.984 61.2344C195 61.2344 194.117 61.0781 193.336 60.7656C192.555 60.4453 191.891 60.0039 191.344 59.4414C190.805 58.8789 190.391 58.2266 190.102 57.4844C189.812 56.7344 189.668 55.9375 189.668 55.0938V54.625C189.668 53.6641 189.805 52.7852 190.078 51.9883C190.352 51.1914 190.742 50.5 191.25 49.9141C191.766 49.3281 192.391 48.8789 193.125 48.5664C193.859 48.2461 194.688 48.0859 195.609 48.0859C196.508 48.0859 197.305 48.2344 198 48.5312C198.695 48.8281 199.277 49.25 199.746 49.7969C200.223 50.3438 200.582 51 200.824 51.7656C201.066 52.5234 201.188 53.3672 201.188 54.2969V55.7031H191.109V53.4531H197.871V53.1953C197.871 52.7266 197.785 52.3086 197.613 51.9414C197.449 51.5664 197.199 51.2695 196.863 51.0508C196.527 50.832 196.098 50.7227 195.574 50.7227C195.129 50.7227 194.746 50.8203 194.426 51.0156C194.105 51.2109 193.844 51.4844 193.641 51.8359C193.445 52.1875 193.297 52.6016 193.195 53.0781C193.102 53.5469 193.055 54.0625 193.055 54.625V55.0938C193.055 55.6016 193.125 56.0703 193.266 56.5C193.414 56.9297 193.621 57.3008 193.887 57.6133C194.16 57.9258 194.488 58.168 194.871 58.3398C195.262 58.5117 195.703 58.5977 196.195 58.5977C196.805 58.5977 197.371 58.4805 197.895 58.2461C198.426 58.0039 198.883 57.6406 199.266 57.1562L200.906 58.9375C200.641 59.3203 200.277 59.6875 199.816 60.0391C199.363 60.3906 198.816 60.6797 198.176 60.9062C197.535 61.125 196.805 61.2344 195.984 61.2344Z" fill="#888888"/>
<path d="M109.219 107.422H100.734V101.07H109.219C110.375 101.07 111.312 100.875 112.031 100.484C112.75 100.094 113.273 99.5547 113.602 98.8672C113.945 98.1641 114.117 97.375 114.117 96.5C114.117 95.5625 113.945 94.6953 113.602 93.8984C113.273 93.1016 112.75 92.4609 112.031 91.9766C111.312 91.4766 110.375 91.2266 109.219 91.2266H103.828V119H95.6016V84.875H109.219C111.953 84.875 114.305 85.375 116.273 86.375C118.258 87.375 119.781 88.75 120.844 90.5C121.906 92.2344 122.438 94.2188 122.438 96.4531C122.438 98.6562 121.906 100.578 120.844 102.219C119.781 103.859 118.258 105.141 116.273 106.062C114.305 106.969 111.953 107.422 109.219 107.422ZM134.461 99.9219V119H126.562V93.6406H133.945L134.461 99.9219ZM141.961 93.4531L141.82 100.789C141.508 100.758 141.086 100.719 140.555 100.672C140.023 100.625 139.578 100.602 139.219 100.602C138.297 100.602 137.5 100.711 136.828 100.93C136.172 101.133 135.625 101.445 135.188 101.867C134.766 102.273 134.453 102.789 134.25 103.414C134.062 104.039 133.977 104.766 133.992 105.594L132.562 104.656C132.562 102.953 132.727 101.406 133.055 100.016C133.398 98.6094 133.883 97.3984 134.508 96.3828C135.133 95.3516 135.891 94.5625 136.781 94.0156C137.672 93.4531 138.672 93.1719 139.781 93.1719C140.172 93.1719 140.555 93.1953 140.93 93.2422C141.32 93.2891 141.664 93.3594 141.961 93.4531ZM142.852 106.578V106.086C142.852 104.227 143.117 102.516 143.648 100.953C144.18 99.375 144.961 98.0078 145.992 96.8516C147.023 95.6953 148.297 94.7969 149.812 94.1562C151.328 93.5 153.078 93.1719 155.062 93.1719C157.062 93.1719 158.82 93.5 160.336 94.1562C161.867 94.7969 163.148 95.6953 164.18 96.8516C165.211 98.0078 165.992 99.375 166.523 100.953C167.055 102.516 167.32 104.227 167.32 106.086V106.578C167.32 108.422 167.055 110.133 166.523 111.711C165.992 113.273 165.211 114.641 164.18 115.812C163.148 116.969 161.875 117.867 160.359 118.508C158.844 119.148 157.094 119.469 155.109 119.469C153.125 119.469 151.367 119.148 149.836 118.508C148.305 117.867 147.023 116.969 145.992 115.812C144.961 114.641 144.18 113.273 143.648 111.711C143.117 110.133 142.852 108.422 142.852 106.578ZM150.75 106.086V106.578C150.75 107.531 150.82 108.422 150.961 109.25C151.102 110.078 151.336 110.805 151.664 111.43C151.992 112.039 152.438 112.516 153 112.859C153.562 113.203 154.266 113.375 155.109 113.375C155.938 113.375 156.625 113.203 157.172 112.859C157.734 112.516 158.18 112.039 158.508 111.43C158.836 110.805 159.07 110.078 159.211 109.25C159.352 108.422 159.422 107.531 159.422 106.578V106.086C159.422 105.164 159.352 104.297 159.211 103.484C159.07 102.656 158.836 101.93 158.508 101.305C158.18 100.664 157.734 100.164 157.172 99.8047C156.609 99.4453 155.906 99.2656 155.062 99.2656C154.234 99.2656 153.539 99.4453 152.977 99.8047C152.43 100.164 151.992 100.664 151.664 101.305C151.336 101.93 151.102 102.656 150.961 103.484C150.82 104.297 150.75 105.164 150.75 106.086ZM171.422 93.6406H179.344V119.82C179.344 121.852 178.953 123.562 178.172 124.953C177.391 126.359 176.273 127.422 174.82 128.141C173.367 128.875 171.633 129.242 169.617 129.242C168.945 129.242 168.328 129.211 167.766 129.148C167.188 129.102 166.555 129 165.867 128.844V122.867C166.273 122.93 166.648 122.977 166.992 123.008C167.336 123.055 167.711 123.078 168.117 123.078C168.836 123.078 169.438 122.961 169.922 122.727C170.406 122.492 170.773 122.133 171.023 121.648C171.289 121.164 171.422 120.555 171.422 119.82V93.6406ZM170.836 87.1016C170.836 85.9766 171.242 85.0547 172.055 84.3359C172.867 83.6172 173.922 83.2578 175.219 83.2578C176.516 83.2578 177.57 83.6172 178.383 84.3359C179.195 85.0547 179.602 85.9766 179.602 87.1016C179.602 88.2266 179.195 89.1484 178.383 89.8672C177.57 90.5859 176.516 90.9453 175.219 90.9453C173.922 90.9453 172.867 90.5859 172.055 89.8672C171.242 89.1484 170.836 88.2266 170.836 87.1016ZM196.102 119.469C194.039 119.469 192.195 119.148 190.57 118.508C188.945 117.852 187.57 116.953 186.445 115.812C185.336 114.672 184.484 113.359 183.891 111.875C183.312 110.391 183.023 108.82 183.023 107.164V106.273C183.023 104.414 183.281 102.695 183.797 101.117C184.312 99.5234 185.078 98.1328 186.094 96.9453C187.109 95.7578 188.383 94.8359 189.914 94.1797C191.445 93.5078 193.227 93.1719 195.258 93.1719C197.055 93.1719 198.664 93.4609 200.086 94.0391C201.508 94.6172 202.711 95.4453 203.695 96.5234C204.695 97.6016 205.453 98.9062 205.969 100.438C206.5 101.969 206.766 103.688 206.766 105.594V108.805H186.047V103.859H199.055V103.25C199.07 102.406 198.922 101.688 198.609 101.094C198.312 100.5 197.875 100.047 197.297 99.7344C196.719 99.4219 196.016 99.2656 195.188 99.2656C194.328 99.2656 193.617 99.4531 193.055 99.8281C192.508 100.203 192.078 100.719 191.766 101.375C191.469 102.016 191.258 102.758 191.133 103.602C191.008 104.445 190.945 105.336 190.945 106.273V107.164C190.945 108.102 191.07 108.953 191.32 109.719C191.586 110.484 191.961 111.141 192.445 111.688C192.945 112.219 193.539 112.633 194.227 112.93C194.93 113.227 195.727 113.375 196.617 113.375C197.695 113.375 198.758 113.172 199.805 112.766C200.852 112.359 201.75 111.688 202.5 110.75L206.086 115.016C205.57 115.75 204.836 116.461 203.883 117.148C202.945 117.836 201.82 118.398 200.508 118.836C199.195 119.258 197.727 119.469 196.102 119.469ZM220.688 113.375C221.422 113.375 222.047 113.242 222.562 112.977C223.094 112.695 223.492 112.305 223.758 111.805C224.039 111.289 224.172 110.672 224.156 109.953H231.586C231.602 111.859 231.133 113.531 230.18 114.969C229.242 116.391 227.961 117.5 226.336 118.297C224.727 119.078 222.906 119.469 220.875 119.469C218.891 119.469 217.156 119.148 215.672 118.508C214.188 117.852 212.945 116.945 211.945 115.789C210.961 114.617 210.219 113.25 209.719 111.688C209.234 110.125 208.992 108.43 208.992 106.602V106.062C208.992 104.234 209.234 102.539 209.719 100.977C210.219 99.3984 210.961 98.0312 211.945 96.875C212.945 95.7031 214.18 94.7969 215.648 94.1562C217.133 93.5 218.859 93.1719 220.828 93.1719C222.938 93.1719 224.797 93.5703 226.406 94.3672C228.031 95.1641 229.305 96.3203 230.227 97.8359C231.148 99.3516 231.602 101.188 231.586 103.344H224.156C224.172 102.578 224.055 101.891 223.805 101.281C223.555 100.672 223.164 100.188 222.633 99.8281C222.117 99.4531 221.453 99.2656 220.641 99.2656C219.828 99.2656 219.172 99.4453 218.672 99.8047C218.172 100.164 217.789 100.664 217.523 101.305C217.273 101.93 217.102 102.648 217.008 103.461C216.93 104.273 216.891 105.141 216.891 106.062V106.602C216.891 107.539 216.93 108.422 217.008 109.25C217.102 110.062 217.281 110.781 217.547 111.406C217.812 112.016 218.195 112.5 218.695 112.859C219.195 113.203 219.859 113.375 220.688 113.375ZM248.32 93.6406V99.125H233.039V93.6406H248.32ZM236.25 87.3359H244.148V110.727C244.148 111.398 244.227 111.922 244.383 112.297C244.539 112.656 244.805 112.914 245.18 113.07C245.57 113.211 246.086 113.281 246.727 113.281C247.18 113.281 247.555 113.273 247.852 113.258C248.148 113.227 248.43 113.188 248.695 113.141V118.789C248.023 119.008 247.32 119.172 246.586 119.281C245.852 119.406 245.07 119.469 244.242 119.469C242.555 119.469 241.109 119.203 239.906 118.672C238.719 118.141 237.812 117.305 237.188 116.164C236.562 115.023 236.25 113.539 236.25 111.711V87.3359ZM274.875 119H267.305L267.352 112.672H274.875C276.438 112.672 277.758 112.297 278.836 111.547C279.93 110.797 280.758 109.68 281.32 108.195C281.898 106.695 282.188 104.852 282.188 102.664V101.188C282.188 99.5469 282.023 98.1094 281.695 96.875C281.383 95.625 280.914 94.5859 280.289 93.7578C279.664 92.9141 278.883 92.2812 277.945 91.8594C277.023 91.4375 275.961 91.2266 274.758 91.2266H267.164V84.875H274.758C277.07 84.875 279.188 85.2734 281.109 86.0703C283.047 86.8516 284.719 87.9766 286.125 89.4453C287.547 90.8984 288.641 92.625 289.406 94.625C290.188 96.6094 290.578 98.8125 290.578 101.234V102.664C290.578 105.07 290.188 107.273 289.406 109.273C288.641 111.273 287.555 113 286.148 114.453C284.742 115.906 283.078 117.031 281.156 117.828C279.25 118.609 277.156 119 274.875 119ZM272.016 84.875V119H263.789V84.875H272.016ZM302.836 93.6406V119H294.914V93.6406H302.836ZM294.445 87.1016C294.445 85.9766 294.852 85.0547 295.664 84.3359C296.477 83.6172 297.531 83.2578 298.828 83.2578C300.125 83.2578 301.18 83.6172 301.992 84.3359C302.805 85.0547 303.211 85.9766 303.211 87.1016C303.211 88.2266 302.805 89.1484 301.992 89.8672C301.18 90.5859 300.125 90.9453 298.828 90.9453C297.531 90.9453 296.477 90.5859 295.664 89.8672C294.852 89.1484 294.445 88.2266 294.445 87.1016ZM321 111.875C321 111.438 320.852 111.062 320.555 110.75C320.273 110.422 319.773 110.125 319.055 109.859C318.336 109.578 317.328 109.297 316.031 109.016C314.797 108.75 313.633 108.398 312.539 107.961C311.461 107.523 310.516 106.992 309.703 106.367C308.891 105.742 308.25 105 307.781 104.141C307.328 103.281 307.102 102.297 307.102 101.188C307.102 100.109 307.328 99.0938 307.781 98.1406C308.25 97.1719 308.93 96.3203 309.82 95.5859C310.727 94.8359 311.828 94.25 313.125 93.8281C314.422 93.3906 315.898 93.1719 317.555 93.1719C319.836 93.1719 321.805 93.5234 323.461 94.2266C325.117 94.9141 326.391 95.8828 327.281 97.1328C328.188 98.3672 328.641 99.7969 328.641 101.422H320.742C320.742 100.781 320.633 100.234 320.414 99.7812C320.211 99.3281 319.875 98.9844 319.406 98.75C318.938 98.5 318.312 98.375 317.531 98.375C316.984 98.375 316.484 98.4766 316.031 98.6797C315.594 98.8828 315.242 99.1641 314.977 99.5234C314.711 99.8828 314.578 100.305 314.578 100.789C314.578 101.133 314.656 101.445 314.812 101.727C314.984 101.992 315.242 102.242 315.586 102.477C315.93 102.695 316.367 102.898 316.898 103.086C317.43 103.258 318.07 103.414 318.82 103.555C320.523 103.867 322.117 104.312 323.602 104.891C325.086 105.469 326.289 106.289 327.211 107.352C328.148 108.414 328.617 109.844 328.617 111.641C328.617 112.766 328.359 113.805 327.844 114.758C327.328 115.695 326.586 116.523 325.617 117.242C324.648 117.945 323.484 118.492 322.125 118.883C320.766 119.273 319.234 119.469 317.531 119.469C315.109 119.469 313.062 119.039 311.391 118.18C309.719 117.305 308.453 116.211 307.594 114.898C306.75 113.57 306.328 112.227 306.328 110.867H313.688C313.719 111.648 313.906 112.289 314.25 112.789C314.609 113.289 315.086 113.656 315.68 113.891C316.273 114.125 316.961 114.242 317.742 114.242C318.461 114.242 319.055 114.141 319.523 113.938C320.008 113.734 320.375 113.461 320.625 113.117C320.875 112.758 321 112.344 321 111.875ZM343.031 113.375C343.766 113.375 344.391 113.242 344.906 112.977C345.438 112.695 345.836 112.305 346.102 111.805C346.383 111.289 346.516 110.672 346.5 109.953H353.93C353.945 111.859 353.477 113.531 352.523 114.969C351.586 116.391 350.305 117.5 348.68 118.297C347.07 119.078 345.25 119.469 343.219 119.469C341.234 119.469 339.5 119.148 338.016 118.508C336.531 117.852 335.289 116.945 334.289 115.789C333.305 114.617 332.562 113.25 332.062 111.688C331.578 110.125 331.336 108.43 331.336 106.602V106.062C331.336 104.234 331.578 102.539 332.062 100.977C332.562 99.3984 333.305 98.0312 334.289 96.875C335.289 95.7031 336.523 94.7969 337.992 94.1562C339.477 93.5 341.203 93.1719 343.172 93.1719C345.281 93.1719 347.141 93.5703 348.75 94.3672C350.375 95.1641 351.648 96.3203 352.57 97.8359C353.492 99.3516 353.945 101.188 353.93 103.344H346.5C346.516 102.578 346.398 101.891 346.148 101.281C345.898 100.672 345.508 100.188 344.977 99.8281C344.461 99.4531 343.797 99.2656 342.984 99.2656C342.172 99.2656 341.516 99.4453 341.016 99.8047C340.516 100.164 340.133 100.664 339.867 101.305C339.617 101.93 339.445 102.648 339.352 103.461C339.273 104.273 339.234 105.141 339.234 106.062V106.602C339.234 107.539 339.273 108.422 339.352 109.25C339.445 110.062 339.625 110.781 339.891 111.406C340.156 112.016 340.539 112.5 341.039 112.859C341.539 113.203 342.203 113.375 343.031 113.375ZM365.273 99.9219V119H357.375V93.6406H364.758L365.273 99.9219ZM372.773 93.4531L372.633 100.789C372.32 100.758 371.898 100.719 371.367 100.672C370.836 100.625 370.391 100.602 370.031 100.602C369.109 100.602 368.312 100.711 367.641 100.93C366.984 101.133 366.438 101.445 366 101.867C365.578 102.273 365.266 102.789 365.062 103.414C364.875 104.039 364.789 104.766 364.805 105.594L363.375 104.656C363.375 102.953 363.539 101.406 363.867 100.016C364.211 98.6094 364.695 97.3984 365.32 96.3828C365.945 95.3516 366.703 94.5625 367.594 94.0156C368.484 93.4531 369.484 93.1719 370.594 93.1719C370.984 93.1719 371.367 93.1953 371.742 93.2422C372.133 93.2891 372.477 93.3594 372.773 93.4531ZM383.836 93.6406V119H375.914V93.6406H383.836ZM375.445 87.1016C375.445 85.9766 375.852 85.0547 376.664 84.3359C377.477 83.6172 378.531 83.2578 379.828 83.2578C381.125 83.2578 382.18 83.6172 382.992 84.3359C383.805 85.0547 384.211 85.9766 384.211 87.1016C384.211 88.2266 383.805 89.1484 382.992 89.8672C382.18 90.5859 381.125 90.9453 379.828 90.9453C378.531 90.9453 377.477 90.5859 376.664 89.8672C375.852 89.1484 375.445 88.2266 375.445 87.1016ZM396.68 98.5156V128.75H388.781V93.6406H396.141L396.68 98.5156ZM412.242 106.016V106.508C412.242 108.352 412.031 110.062 411.609 111.641C411.188 113.219 410.562 114.594 409.734 115.766C408.906 116.938 407.875 117.852 406.641 118.508C405.422 119.148 404.008 119.469 402.398 119.469C400.883 119.469 399.578 119.133 398.484 118.461C397.391 117.789 396.477 116.859 395.742 115.672C395.008 114.484 394.414 113.125 393.961 111.594C393.508 110.062 393.148 108.445 392.883 106.742V106.109C393.148 104.281 393.508 102.586 393.961 101.023C394.414 99.4453 395.008 98.0703 395.742 96.8984C396.477 95.7266 397.383 94.8125 398.461 94.1562C399.555 93.5 400.859 93.1719 402.375 93.1719C403.984 93.1719 405.398 93.4766 406.617 94.0859C407.852 94.6953 408.883 95.5703 409.711 96.7109C410.555 97.8359 411.188 99.1875 411.609 100.766C412.031 102.344 412.242 104.094 412.242 106.016ZM404.344 106.508V106.016C404.344 105.031 404.273 104.133 404.133 103.32C403.992 102.492 403.766 101.773 403.453 101.164C403.156 100.555 402.758 100.086 402.258 99.7578C401.758 99.4297 401.141 99.2656 400.406 99.2656C399.562 99.2656 398.852 99.3984 398.273 99.6641C397.711 99.9141 397.258 100.305 396.914 100.836C396.586 101.352 396.352 102 396.211 102.781C396.086 103.547 396.031 104.445 396.047 105.477V107.398C396.016 108.586 396.133 109.633 396.398 110.539C396.664 111.43 397.125 112.125 397.781 112.625C398.438 113.125 399.328 113.375 400.453 113.375C401.203 113.375 401.828 113.203 402.328 112.859C402.828 112.5 403.227 112.008 403.523 111.383C403.82 110.742 404.031 110.008 404.156 109.18C404.281 108.352 404.344 107.461 404.344 106.508ZM429.117 93.6406V99.125H413.836V93.6406H429.117ZM417.047 87.3359H424.945V110.727C424.945 111.398 425.023 111.922 425.18 112.297C425.336 112.656 425.602 112.914 425.977 113.07C426.367 113.211 426.883 113.281 427.523 113.281C427.977 113.281 428.352 113.273 428.648 113.258C428.945 113.227 429.227 113.188 429.492 113.141V118.789C428.82 119.008 428.117 119.172 427.383 119.281C426.648 119.406 425.867 119.469 425.039 119.469C423.352 119.469 421.906 119.203 420.703 118.672C419.516 118.141 418.609 117.305 417.984 116.164C417.359 115.023 417.047 113.539 417.047 111.711V87.3359ZM440.602 93.6406V119H432.68V93.6406H440.602ZM432.211 87.1016C432.211 85.9766 432.617 85.0547 433.43 84.3359C434.242 83.6172 435.297 83.2578 436.594 83.2578C437.891 83.2578 438.945 83.6172 439.758 84.3359C440.57 85.0547 440.977 85.9766 440.977 87.1016C440.977 88.2266 440.57 89.1484 439.758 89.8672C438.945 90.5859 437.891 90.9453 436.594 90.9453C435.297 90.9453 434.242 90.5859 433.43 89.8672C432.617 89.1484 432.211 88.2266 432.211 87.1016ZM444.492 106.578V106.086C444.492 104.227 444.758 102.516 445.289 100.953C445.82 99.375 446.602 98.0078 447.633 96.8516C448.664 95.6953 449.938 94.7969 451.453 94.1562C452.969 93.5 454.719 93.1719 456.703 93.1719C458.703 93.1719 460.461 93.5 461.977 94.1562C463.508 94.7969 464.789 95.6953 465.82 96.8516C466.852 98.0078 467.633 99.375 468.164 100.953C468.695 102.516 468.961 104.227 468.961 106.086V106.578C468.961 108.422 468.695 110.133 468.164 111.711C467.633 113.273 466.852 114.641 465.82 115.812C464.789 116.969 463.516 117.867 462 118.508C460.484 119.148 458.734 119.469 456.75 119.469C454.766 119.469 453.008 119.148 451.477 118.508C449.945 117.867 448.664 116.969 447.633 115.812C446.602 114.641 445.82 113.273 445.289 111.711C444.758 110.133 444.492 108.422 444.492 106.578ZM452.391 106.086V106.578C452.391 107.531 452.461 108.422 452.602 109.25C452.742 110.078 452.977 110.805 453.305 111.43C453.633 112.039 454.078 112.516 454.641 112.859C455.203 113.203 455.906 113.375 456.75 113.375C457.578 113.375 458.266 113.203 458.812 112.859C459.375 112.516 459.82 112.039 460.148 111.43C460.477 110.805 460.711 110.078 460.852 109.25C460.992 108.422 461.062 107.531 461.062 106.578V106.086C461.062 105.164 460.992 104.297 460.852 103.484C460.711 102.656 460.477 101.93 460.148 101.305C459.82 100.664 459.375 100.164 458.812 99.8047C458.25 99.4453 457.547 99.2656 456.703 99.2656C455.875 99.2656 455.18 99.4453 454.617 99.8047C454.07 100.164 453.633 100.664 453.305 101.305C452.977 101.93 452.742 102.656 452.602 103.484C452.461 104.297 452.391 105.164 452.391 106.086ZM480.234 99.0547V119H472.336V93.6406H479.742L480.234 99.0547ZM479.297 105.453L477.445 105.5C477.445 103.562 477.68 101.836 478.148 100.32C478.617 98.7891 479.281 97.4922 480.141 96.4297C481 95.3672 482.023 94.5625 483.211 94.0156C484.414 93.4531 485.75 93.1719 487.219 93.1719C488.391 93.1719 489.461 93.3438 490.43 93.6875C491.414 94.0312 492.258 94.5859 492.961 95.3516C493.68 96.1172 494.227 97.1328 494.602 98.3984C494.992 99.6484 495.188 101.195 495.188 103.039V119H487.242V103.016C487.242 102 487.102 101.227 486.82 100.695C486.539 100.148 486.133 99.7734 485.602 99.5703C485.07 99.3672 484.422 99.2656 483.656 99.2656C482.844 99.2656 482.156 99.4219 481.594 99.7344C481.031 100.047 480.578 100.484 480.234 101.047C479.906 101.594 479.664 102.242 479.508 102.992C479.367 103.742 479.297 104.562 479.297 105.453Z" fill="black"/>
<path d="M1134 0H1348C1356.28 0 1363 6.71573 1363 15V148C1363 156.284 1356.28 163 1348 163H1134V0Z" fill="#1A96E3"/>
<path d="M1234.26 103.786H1262.74V109.357H1234.26V103.786ZM1239.96 114.929H1257.04V120.5H1239.96V114.929ZM1248.5 42.5C1240.95 42.5 1233.71 45.4349 1228.37 50.6592C1223.03 55.8834 1220.03 62.969 1220.03 70.3571C1219.84 74.4057 1220.63 78.4412 1222.34 82.1315C1224.05 85.8219 1226.64 89.0616 1229.88 91.5843C1232.73 94.175 1234.26 95.6514 1234.26 98.2143H1239.96C1239.96 93.0886 1236.8 90.2193 1233.72 87.4614C1231.06 85.4676 1228.94 82.8658 1227.55 79.8838C1226.15 76.9019 1225.53 73.6308 1225.72 70.3571C1225.72 64.4466 1228.12 58.7781 1232.39 54.5988C1236.67 50.4194 1242.46 48.0714 1248.5 48.0714C1254.54 48.0714 1260.33 50.4194 1264.61 54.5988C1268.88 58.7781 1271.28 64.4466 1271.28 70.3571C1271.47 73.6333 1270.84 76.9059 1269.44 79.888C1268.04 82.8701 1265.92 85.4706 1263.25 87.4614C1260.2 90.2471 1257.04 93.0329 1257.04 98.2143H1262.74C1262.74 95.6514 1264.25 94.175 1267.12 91.5564C1270.36 89.0381 1272.94 85.8031 1274.66 82.1176C1276.37 78.4321 1277.16 74.4014 1276.97 70.3571C1276.97 66.6989 1276.24 63.0765 1274.81 59.6967C1273.37 56.3169 1271.28 53.2459 1268.63 50.6592C1265.99 48.0724 1262.85 46.0205 1259.4 44.6205C1255.94 43.2205 1252.24 42.5 1248.5 42.5Z" fill="white"/>
</svg>
